<?xml version="1.0" encoding="UTF-8"?>
<svg xmlns="http://www.w3.org/2000/svg" xmlns:xlink="http://www.w3.org/1999/xlink" width="60px" height="60px" viewBox="0 0 60 60" version="1.1">
<g id="surface1">
<path style=" stroke:none;fill-rule:nonzero;fill:rgb(0%,0%,0%);fill-opacity:1;" d="M 60 0 L 0 0 L 0 44.515625 L 10.457031 44.515625 C 8.847656 47.460938 7.886719 50.808594 7.761719 54.367188 C 6.628906 54.761719 5.804688 55.828125 5.804688 57.097656 C 5.804688 58.699219 7.109375 60 8.710938 60 C 10.308594 60 11.613281 58.699219 11.613281 57.097656 C 11.613281 55.851562 10.820312 54.796875 9.71875 54.382812 C 9.855469 50.773438 10.933594 47.410156 12.722656 44.515625 L 19.402344 44.515625 C 19.59375 46.660156 20.429688 48.664062 21.804688 50.324219 L 20.324219 50.324219 L 20.324219 52.257812 L 22.257812 52.257812 L 22.257812 54.195312 L 20.324219 54.195312 L 20.324219 56.128906 L 22.257812 56.128906 L 22.257812 60 L 37.742188 60 L 37.742188 56.128906 L 39.675781 56.128906 L 39.675781 54.195312 L 37.742188 54.195312 L 37.742188 52.257812 L 39.675781 52.257812 L 39.675781 50.324219 L 38.195312 50.324219 C 39.570312 48.664062 40.40625 46.660156 40.601562 44.515625 L 47.277344 44.515625 C 49.066406 47.410156 50.144531 50.773438 50.285156 54.382812 C 49.179688 54.796875 48.386719 55.851562 48.386719 57.097656 C 48.386719 58.699219 49.691406 60 51.289062 60 C 52.890625 60 54.195312 58.699219 54.195312 57.097656 C 54.195312 55.828125 53.371094 54.761719 52.238281 54.367188 C 52.113281 50.808594 51.152344 47.460938 49.542969 44.515625 L 60 44.515625 Z M 8.710938 58.066406 C 8.175781 58.066406 7.742188 57.628906 7.742188 57.097656 C 7.742188 56.5625 8.175781 56.128906 8.710938 56.128906 C 9.242188 56.128906 9.675781 56.5625 9.675781 57.097656 C 9.675781 57.628906 9.242188 58.066406 8.710938 58.066406 Z M 51.289062 56.128906 C 51.824219 56.128906 52.257812 56.5625 52.257812 57.097656 C 52.257812 57.628906 51.824219 58.066406 51.289062 58.066406 C 50.757812 58.066406 50.324219 57.628906 50.324219 57.097656 C 50.324219 56.5625 50.757812 56.128906 51.289062 56.128906 Z M 14.070312 42.582031 C 16.179688 39.914062 18.929688 37.78125 22.101562 36.4375 C 20.605469 38.097656 19.617188 40.226562 19.402344 42.582031 Z M 35.804688 58.066406 L 24.195312 58.066406 L 24.195312 56.128906 L 35.804688 56.128906 Z M 35.804688 54.195312 L 24.195312 54.195312 L 24.195312 52.257812 L 35.804688 52.257812 Z M 36.097656 49.761719 L 35.804688 50.046875 L 35.804688 50.324219 L 30.96875 50.324219 L 30.96875 47.28125 C 32.632812 46.847656 33.871094 45.347656 33.871094 43.546875 C 33.871094 41.414062 32.136719 39.675781 30 39.675781 C 27.863281 39.675781 26.128906 41.414062 26.128906 43.546875 C 26.128906 45.347656 27.367188 46.847656 29.03125 47.28125 L 29.03125 50.324219 L 24.195312 50.324219 L 24.195312 50.046875 L 23.902344 49.761719 C 22.21875 48.109375 21.289062 45.902344 21.289062 43.546875 C 21.289062 38.746094 25.199219 34.839844 30 34.839844 C 34.800781 34.839844 38.710938 38.746094 38.710938 43.546875 C 38.710938 45.902344 37.78125 48.109375 36.097656 49.761719 Z M 30 45.484375 C 28.933594 45.484375 28.066406 44.617188 28.066406 43.546875 C 28.066406 42.480469 28.933594 41.613281 30 41.613281 C 31.066406 41.613281 31.933594 42.480469 31.933594 43.546875 C 31.933594 44.617188 31.066406 45.484375 30 45.484375 Z M 40.597656 42.582031 C 40.382812 40.226562 39.394531 38.097656 37.898438 36.4375 C 41.070312 37.78125 43.820312 39.914062 45.929688 42.582031 Z M 58.066406 42.582031 L 48.347656 42.582031 C 46.035156 39.21875 42.824219 36.523438 39.0625 34.839844 L 50.5 34.839844 C 50.902344 35.960938 51.964844 36.773438 53.226562 36.773438 C 54.828125 36.773438 56.128906 35.472656 56.128906 33.871094 C 56.128906 32.269531 54.828125 30.96875 53.226562 30.96875 C 51.964844 30.96875 50.902344 31.78125 50.5 32.902344 L 9.5 32.902344 C 9.097656 31.78125 8.035156 30.96875 6.773438 30.96875 C 5.171875 30.96875 3.871094 32.269531 3.871094 33.871094 C 3.871094 35.472656 5.171875 36.773438 6.773438 36.773438 C 8.035156 36.773438 9.097656 35.960938 9.5 34.839844 L 20.9375 34.839844 C 17.175781 36.523438 13.964844 39.21875 11.652344 42.582031 L 1.933594 42.582031 L 1.933594 9.675781 L 58.066406 9.675781 Z M 52.257812 33.871094 C 52.257812 33.335938 52.691406 32.902344 53.226562 32.902344 C 53.757812 32.902344 54.195312 33.335938 54.195312 33.871094 C 54.195312 34.402344 53.757812 34.839844 53.226562 34.839844 C 52.691406 34.839844 52.257812 34.402344 52.257812 33.871094 Z M 7.742188 33.871094 C 7.742188 34.402344 7.308594 34.839844 6.773438 34.839844 C 6.242188 34.839844 5.804688 34.402344 5.804688 33.871094 C 5.804688 33.335938 6.242188 32.902344 6.773438 32.902344 C 7.308594 32.902344 7.742188 33.335938 7.742188 33.871094 Z M 58.066406 7.742188 L 1.933594 7.742188 L 1.933594 1.933594 L 58.066406 1.933594 Z M 58.066406 7.742188 "/>
<path style=" stroke:none;fill-rule:nonzero;fill:rgb(0%,0%,0%);fill-opacity:1;" d="M 3.871094 3.871094 L 9.675781 3.871094 L 9.675781 5.804688 L 3.871094 5.804688 Z M 3.871094 3.871094 "/>
<path style=" stroke:none;fill-rule:nonzero;fill:rgb(0%,0%,0%);fill-opacity:1;" d="M 11.613281 3.871094 L 13.546875 3.871094 L 13.546875 5.804688 L 11.613281 5.804688 Z M 11.613281 3.871094 "/>
<path style=" stroke:none;fill-rule:nonzero;fill:rgb(0%,0%,0%);fill-opacity:1;" d="M 19.355469 11.613281 L 3.871094 11.613281 L 3.871094 29.03125 L 19.355469 29.03125 Z M 17.417969 27.097656 L 5.804688 27.097656 L 5.804688 13.546875 L 17.417969 13.546875 Z M 17.417969 27.097656 "/>
<path style=" stroke:none;fill-rule:nonzero;fill:rgb(0%,0%,0%);fill-opacity:1;" d="M 38.710938 11.613281 L 21.289062 11.613281 L 21.289062 29.03125 L 38.710938 29.03125 Z M 36.773438 27.097656 L 23.226562 27.097656 L 23.226562 13.546875 L 36.773438 13.546875 Z M 36.773438 27.097656 "/>
<path style=" stroke:none;fill-rule:nonzero;fill:rgb(0%,0%,0%);fill-opacity:1;" d="M 56.128906 11.613281 L 40.644531 11.613281 L 40.644531 29.03125 L 56.128906 29.03125 Z M 54.195312 27.097656 L 42.582031 27.097656 L 42.582031 13.546875 L 54.195312 13.546875 Z M 54.195312 27.097656 "/>
</g>
</svg>
